<svg xmlns="http://www.w3.org/2000/svg" viewBox="0 0 64 64" width="64" height="64">
  <!-- Docker blue background with rounded corners -->
  <rect width="64" height="64" rx="12" fill="#0db7ed"/>
  
  <!-- Simplified Docker whale with containers -->
  <g transform="translate(32, 32)">
    <!-- Whale body -->
    <path d="M -20 2 C -20 -6, -10 -10, 0 -10 C 10 -10, 20 -6, 20 2 C 20 8, 10 12, 0 12 C -10 12, -20 8, -20 2 Z" fill="white"/>
    
    <!-- Containers on top (Docker style) -->
    <!-- Row 1 -->
    <rect x="-16" y="-8" width="5" height="5" fill="white" stroke="#0db7ed" stroke-width="0.5"/>
    <rect x="-10" y="-8" width="5" height="5" fill="white" stroke="#0db7ed" stroke-width="0.5"/>
    <rect x="-4" y="-8" width="5" height="5" fill="white" stroke="#0db7ed" stroke-width="0.5"/>
    <rect x="2" y="-8" width="5" height="5" fill="white" stroke="#0db7ed" stroke-width="0.5"/>
    <rect x="8" y="-8" width="5" height="5" fill="white" stroke="#0db7ed" stroke-width="0.5"/>
    
    <!-- Row 2 -->
    <rect x="-16" y="-2" width="5" height="5" fill="white" stroke="#0db7ed" stroke-width="0.5"/>
    <rect x="-10" y="-2" width="5" height="5" fill="white" stroke="#0db7ed" stroke-width="0.5"/>
    <rect x="-4" y="-2" width="5" height="5" fill="white" stroke="#0db7ed" stroke-width="0.5"/>
    <rect x="2" y="-2" width="5" height="5" fill="white" stroke="#0db7ed" stroke-width="0.5"/>
    
    <!-- Row 3 (bottom) -->
    <rect x="-10" y="4" width="5" height="5" fill="white" stroke="#0db7ed" stroke-width="0.5"/>
    
    <!-- Whale tail -->
    <path d="M -20 2 L -24 0 L -22 4 L -24 8 L -20 6 Z" fill="white"/>
    
    <!-- Eye -->
    <circle cx="12" cy="2" r="1.5" fill="#0db7ed"/>
  </g>
  
  <!-- Water waves -->
  <path d="M 10 48 Q 20 46, 30 48 T 50 48" stroke="white" stroke-width="2" fill="none" opacity="0.4"/>
  <path d="M 14 52 Q 24 50, 34 52 T 54 52" stroke="white" stroke-width="1.5" fill="none" opacity="0.3"/>
</svg>