<svg xmlns="http://www.w3.org/2000/svg" viewBox="0 0 64 64" width="64" height="64">
  <!-- Blue gradient background -->
  <defs>
    <linearGradient id="bgGradient" x1="0%" y1="0%" x2="100%" y2="100%">
      <stop offset="0%" style="stop-color:#4FC3F7;stop-opacity:1" />
      <stop offset="100%" style="stop-color:#2196F3;stop-opacity:1" />
    </linearGradient>
  </defs>
  
  <!-- Background circle -->
  <circle cx="32" cy="32" r="30" fill="url(#bgGradient)"/>
  
  <!-- Docker whale with containers -->
  <g transform="translate(32, 35)">
    <!-- Whale body -->
    <ellipse cx="0" cy="0" rx="18" ry="11" fill="white"/>
    
    <!-- Whale tail -->
    <path d="M -17 0 L -22 -5 L -20 0 L -22 5 Z" fill="white"/>
    
    <!-- Container blocks on whale's back (simplified) -->
    <g fill="white" stroke="#2196F3" stroke-width="0.3">
      <!-- Bottom row -->
      <rect x="-10" y="-5" width="4" height="4" rx="0.3"/>
      <rect x="-5" y="-5" width="4" height="4" rx="0.3"/>
      <rect x="0" y="-5" width="4" height="4" rx="0.3"/>
      <rect x="5" y="-5" width="4" height="4" rx="0.3"/>
      
      <!-- Middle row -->
      <rect x="-8" y="-10" width="4" height="4" rx="0.3"/>
      <rect x="-3" y="-10" width="4" height="4" rx="0.3"/>
      <rect x="2" y="-10" width="4" height="4" rx="0.3"/>
      
      <!-- Top container -->
      <rect x="-5" y="-15" width="4" height="4" rx="0.3"/>
      <rect x="0" y="-15" width="4" height="4" rx="0.3"/>
    </g>
    
    <!-- Whale eye -->
    <circle cx="10" cy="-1" r="1.2" fill="#2196F3"/>
  </g>
  
  <!-- Water wave -->
  <path d="M 8 46 Q 20 44, 32 46 T 56 46" 
        stroke="white" stroke-width="1.5" fill="none" opacity="0.6" stroke-linecap="round"/>
</svg>